<?xml version="1.0" encoding="utf-8"?>
<!-- Generator: Adobe Illustrator 22.1.0, SVG Export Plug-In . SVG Version: 6.00 Build 0)  -->
<svg version="1.1" id="Layer_1" xmlns="http://www.w3.org/2000/svg" xmlns:xlink="http://www.w3.org/1999/xlink" x="0px" y="0px"
	 viewBox="0 0 1366 768" style="enable-background:new 0 0 1366 768;" xml:space="preserve">
<style type="text/css">
	.st0{fill:#110098;}
	.st1{fill:#9C2E00;}
	.st2{fill:#007223;}
	.st3{fill:none;}
	.st4{fill:#F7931E;stroke:#F7931E;stroke-width:16;stroke-miterlimit:10;}
	.st5{font-family:'ChalkboardSE-Regular';}
	.st6{font-size:240px;}
</style>
<g>
	<path class="st0" d="M386.5,246.2c8-11.3,16.9-22,26.8-31.9c22-22,47.7-39.4,76.3-51.4c29.6-12.5,61-18.9,93.4-18.9
		s63.8,6.3,93.4,18.9c28.6,12.1,54.2,29.4,76.3,51.4c8.7,8.7,16.7,18,23.9,27.8l7.9-4.4C739.3,175.5,665.9,135,583,135
		c-84.6,0-159.4,42.2-204.4,106.7L386.5,246.2z"/>
	<g>
		<path class="st1" d="M399.4,253.7c31.9-45,79.6-76.8,133.6-89.2c54.8-12.6,114.1-3.6,162.9,24.8c26.3,15.3,49.5,35.7,67.7,60.4
			c4.9,6.6,12.8,9.6,20.5,5.4c2.6-1.5,5.3-2.9,7.9-4.4c6.6-3.6,10.1-14.1,5.4-20.5c-38.7-52.9-95.6-91.3-160.1-104.6
			c-65.9-13.5-135.8-1.8-193.1,33.7c-31.1,19.3-57.6,44.9-78.6,74.8c-4.6,6.6-1.2,16.8,5.4,20.5c2.6,1.5,5.2,3,7.8,4.5
			C386,263.1,395.3,260.8,399.4,253.7c4.1-7,1.7-16.5-5.4-20.5c-2.6-1.5-5.2-3-7.8-4.5c1.8,6.8,3.6,13.7,5.4,20.5
			c4.8-6.8,6.6-9.2,12-15.6c4.8-5.6,9.8-11,15-16.2c5.2-5.2,10.7-10.1,16.4-14.8c1.5-1.3,3-2.5,4.6-3.7c0,0,1.9-1.5,0.8-0.6
			c-1.3,1,1.2-0.9,1.4-1.1c3-2.2,6-4.3,9-6.4c12.3-8.3,25.3-15.6,38.8-21.6c0.9-0.4,1.8-0.8,2.7-1.2c-0.6,0.3-2.3,0.9,0.5-0.2
			c1.6-0.7,3.2-1.3,4.9-1.9c3.5-1.3,7-2.6,10.6-3.8c7.2-2.4,14.5-4.4,21.8-6.2c7.5-1.7,15-3.2,22.6-4.2c-2.3,0.3,0.3,0,0.6-0.1
			c1-0.1,2.1-0.2,3.1-0.3c1.8-0.2,3.6-0.4,5.4-0.5c3.9-0.3,7.8-0.6,11.7-0.7c7.9-0.3,15.8-0.2,23.7,0.2c3.9,0.2,7.8,0.5,11.7,0.9
			c1.8,0.2,3.6,0.4,5.4,0.6c-0.7-0.1-2.5-0.4,0.6,0.1c1,0.1,2,0.3,3.1,0.5c15.1,2.4,29.9,6.1,44.3,11.2c3.5,1.3,7.1,2.6,10.5,4
			c0.7,0.3,1.4,0.6,2.1,0.9c-2.1-0.9,0.2,0.1,0.5,0.3c1.8,0.8,3.6,1.6,5.4,2.5c6.7,3.2,13.4,6.6,19.8,10.4
			c7.3,4.2,14.3,8.8,21.1,13.8c4.5,3.3,4,2.9,8.1,6.2c3.2,2.7,6.4,5.4,9.5,8.2c6,5.5,11.8,11.2,17.2,17.2c2.8,3.1,5.6,6.3,8.2,9.5
			c1.3,1.5,2.5,3.1,3.7,4.6c-1.4-1.8,0.2,0.2,0.4,0.5c0.9,1.2,1.8,2.4,2.6,3.6c1.8-6.8,3.6-13.7,5.4-20.5c-2.6,1.5-5.3,2.9-7.9,4.4
			c6.8,1.8,13.7,3.6,20.5,5.4c-37.5-50.6-91.9-87.3-153.9-100.1c-63.1-13-129.9-2-185,31.6c-30.5,18.6-56.4,43.5-77.1,72.6
			c-4.7,6.6-1.2,16.7,5.4,20.5C386.4,263.5,394.7,260.4,399.4,253.7z"/>
	</g>
</g>
<g>
	<path class="st0" d="M803,288.1c0.4,0.8,0.7,1.7,1.1,2.5c12.5,29.6,18.9,61,18.9,93.4s-6.3,63.8-18.9,93.4
		c-12.1,28.6-29.4,54.2-51.4,76.3c-22,22-47.7,39.4-76.3,51.4c-24.1,10.2-49.4,16.3-75.4,18.2v9c129.1-9.2,231-116.9,231-248.3
		c0-35.7-7.5-69.6-21-100.3L803,288.1z"/>
	<g>
		<path class="st0" d="M790.1,295.6c1.9,4.2-1.2-3.1,1,2.3c0.7,1.7,1.3,3.4,2,5.1c1.3,3.4,2.5,6.8,3.6,10.2c2.4,7.4,4.5,15,6.2,22.6
			c3.2,14.3,4.7,26.8,5,41.8c0.8,29.8-3.8,57.5-14.2,85.7c-18.4,49.7-55.5,92-102.1,117.8c-27.6,15.3-59.3,24.8-90.6,27.2
			c-8.1,0.6-15,6.4-15,15c0,3,0,6,0,9c0,7.7,6.9,15.6,15,15c62.9-4.7,122.7-31.2,167.6-75.6c44.7-44.2,72-103.4,77.4-165.9
			c3.9-44.5-4.3-88.9-22.1-129.7c-3.3-7.6-14.1-8.9-20.5-5.4c-2.6,1.5-5.3,2.9-7.9,4.4C788.4,279,786.1,288.8,790.1,295.6
			c4.2,7.2,13.4,9.3,20.5,5.4c2.6-1.5,5.3-2.9,7.9-4.4c-6.8-1.8-13.7-3.6-20.5-5.4c2.8,6.5,6.3,16.1,8.8,24.2c2.7,9,5,18.2,6.7,27.5
			c3,16.5,4.1,34.5,3.3,52.4c-0.2,3.5-0.4,7-0.7,10.5c-0.2,1.9-0.3,3.7-0.5,5.6c-0.1,1.1-0.8,6.5-0.4,3.6c-1,7.3-2.4,14.5-4,21.6
			c-1.6,7.1-3.6,14-5.8,20.9c-1,3.2-2.2,6.4-3.3,9.5c-0.5,1.5-1.1,2.9-1.7,4.4c-0.3,0.8-0.7,1.7-1,2.5c-1.6,4,0.7-1.5-0.3,0.7
			c-5.6,13-12.3,25.6-20.1,37.5c-1.8,2.8-3.7,5.5-5.6,8.2c-1,1.4-2.1,2.9-3.1,4.3c-0.5,0.7-1.1,1.4-1.6,2.1
			c-1.7,2.2,0.6-0.7-0.5,0.6c-4.4,5.5-8.9,10.9-13.8,16c-4.7,5-9.5,9.8-14.6,14.4c-2.6,2.4-5.3,4.7-8,6.9c-1.4,1.1-2.7,2.2-4.1,3.3
			c-0.7,0.5-1.4,1.1-2.1,1.6c1.2-0.9,0.9-0.7-0.1,0.1c-11.4,8.5-23.3,16.1-35.9,22.6c-3.6,1.8-7.2,3.6-10.8,5.3
			c-0.8,0.4-1.6,0.7-2.4,1.1c-0.3,0.1-3.6,1.6-1.9,0.8c1.7-0.7-0.9,0.4-1.3,0.5c-1,0.4-2.1,0.8-3.1,1.2c-7.5,3-15.2,5.6-23,7.8
			c-7.7,2.2-15.4,4-23.3,5.4c-2,0.4-4.1,0.7-6.1,1c-0.9,0.1-1.8,0.3-2.7,0.4c-2.9,0.4,1-0.1-0.8,0.1c-4.4,0.5-8.8,1-13.2,1.3
			c5,5,10,10,15,15c0-3,0-6,0-9c-5,5-10,10-15,15c63.6-4.9,123.8-32.9,167.6-79.5C812,512.6,837,451.1,838,387.7
			c0.5-36.9-7.1-73.4-22-107.2c-3.3-7.4-14.1-9.1-20.5-5.4C787.8,279.6,786.8,288.2,790.1,295.6z"/>
	</g>
</g>
<g>
	<path class="st0" d="M548,621.5c-20.1-2.9-39.6-8.4-58.4-16.3c-28.6-12.1-54.2-29.4-76.3-51.4c-22-22-39.4-47.7-51.4-76.3
		c-12.5-29.6-18.9-61-18.9-93.4c0-31.6,6.1-62.4,18-91.3l-7.9-4.5C340.8,317.7,334,350,334,384c0,125.6,93.1,229.5,214,246.5V621.5z
		"/>
	<g>
		<path class="st2" d="M552,607c-53.9-8.1-101.5-33.6-137.4-73.8c-34.8-38.9-55.4-91.2-56.5-143.8c-0.7-32.2,5.1-62.6,17.4-92.8
			c2.4-6-1.6-13.9-6.9-16.9c-2.6-1.5-5.3-3-7.9-4.5c-9.3-5.3-18.4,0.1-22,9c-25.7,62.2-26.3,134.9-0.9,197.3
			c22.2,54.7,61.8,101.3,113,131c28.7,16.6,60.5,27.8,93.3,32.5c9.5,1.4,19-3.7,19-14.5c0-3,0-6,0-9.1c0-7.8-6.9-15.4-15-15
			c-8.1,0.4-15,6.6-15,15c0,3,0,6,0,9.1c6.3-4.8,12.7-9.6,19-14.5c-13.9-2-27.6-5.1-41-9.4c-6.5-2.1-12.9-4.4-19.1-7
			c-2.2-0.9,2,0.9-0.2-0.1c-0.6-0.3-1.2-0.5-1.9-0.8c-1.6-0.7-3.3-1.5-4.9-2.2c-3.3-1.5-6.5-3.1-9.7-4.8
			c-11.9-6.2-23.2-13.4-34-21.4c-0.7-0.5-1.4-1.1-2.1-1.6c0.2,0.2,1.7,1.4,0.4,0.3c-1.4-1.1-2.8-2.2-4.2-3.3
			c-2.6-2.1-5.1-4.3-7.6-6.5c-5.1-4.6-10.1-9.4-14.8-14.4c-4.6-4.8-9-9.9-13.2-15c-1-1.2-1.9-2.4-2.9-3.7c1.8,2.3-1.3-1.8-1.7-2.3
			c-2-2.7-3.9-5.4-5.8-8.2c-7.6-11.3-14.4-23.3-20-35.7c-0.7-1.4-1.3-2.9-1.9-4.3c-1-2.2,0.8,2-0.1-0.2c-0.3-0.6-0.5-1.3-0.8-1.9
			c-1.4-3.4-2.6-6.7-3.9-10.2c-2.3-6.4-4.3-13-6.1-19.6c-1.8-6.9-3.3-13.9-4.6-20.9c-0.3-1.6-0.5-3.2-0.8-4.8
			c-0.1-0.9-0.3-1.8-0.4-2.8c0.1,0.6,0.3,2.8,0-0.2c-0.4-3.5-0.8-7-1.1-10.5c-3.2-39,2.7-76.1,17.7-112.5c-7.3,3-14.7,6-22,9
			c2.6,1.5,5.3,3,7.9,4.5c-2.3-5.6-4.6-11.3-6.9-16.9c-23.2,57-24.8,122.9-3.8,180.9c19.7,54.3,57.2,101.1,106.4,131.5
			c28.8,17.8,61.4,29.8,94.9,34.8c7.7,1.2,16.5-1.9,18.5-10.5C564.1,618.3,560.3,608.2,552,607z"/>
	</g>
</g>
<rect x="437.7" y="300.6" class="st3" width="287" height="250"/>
<text transform="matrix(1 0 0 1 481.9028 469.7617)" class="st4 st5 st6">M</text>
</svg>
