<?xml version="1.0" standalone="no"?>
<!DOCTYPE svg PUBLIC "-//W3C//DTD SVG 20010904//EN"
 "http://www.w3.org/TR/2001/REC-SVG-20010904/DTD/svg10.dtd">
<svg version="1.0" xmlns="http://www.w3.org/2000/svg"
 width="2201.000000pt" height="2201.000000pt" viewBox="0 0 2201.000000 2201.000000"
 preserveAspectRatio="xMidYMid meet">
<metadata>
Created by potrace 1.11, written by Peter Selinger 2001-2013
</metadata>
<g transform="translate(0.000000,2201.000000) scale(0.100000,-0.100000)"
fill="#000000" stroke="none">
<path d="M10777 21994 c-1 -1 -87 -5 -192 -9 -104 -3 -210 -8 -235 -10 -25 -2
-90 -6 -145 -10 -55 -3 -113 -8 -130 -10 -16 -2 -64 -7 -105 -10 -41 -3 -91
-8 -110 -10 -59 -7 -122 -14 -180 -20 -30 -4 -66 -8 -80 -10 -14 -2 -50 -7
-80 -10 -30 -3 -62 -8 -70 -10 -8 -2 -40 -7 -70 -10 -30 -3 -62 -8 -70 -10 -8
-2 -33 -7 -55 -10 -23 -3 -52 -7 -65 -10 -13 -3 -42 -7 -65 -11 -22 -3 -62
-10 -90 -16 -27 -5 -63 -12 -80 -15 -217 -36 -769 -166 -1011 -238 -49 -15
-120 -35 -159 -46 -228 -65 -847 -287 -1040 -374 -16 -8 -74 -32 -128 -55 -55
-23 -142 -61 -194 -86 -52 -24 -97 -44 -99 -44 -13 0 -485 -241 -641 -328
-409 -227 -910 -550 -1226 -792 -54 -41 -105 -79 -114 -85 -8 -5 -25 -18 -37
-27 -11 -10 -84 -68 -161 -130 -153 -122 -371 -306 -450 -379 -27 -25 -81 -75
-120 -111 -38 -36 -83 -77 -100 -92 -177 -161 -563 -563 -760 -791 -43 -49
-92 -106 -109 -125 -17 -19 -60 -71 -96 -115 -35 -44 -67 -82 -70 -85 -3 -3
-46 -57 -95 -120 -49 -63 -92 -117 -95 -120 -5 -4 -108 -144 -277 -375 -43
-59 -88 -147 -97 -190 -3 -16 -9 -41 -11 -55 -21 -103 7 -268 64 -385 55 -111
178 -246 247 -272 11 -3 43 -21 72 -40 29 -18 54 -33 56 -33 3 0 44 -23 93
-51 194 -112 269 -139 396 -140 230 -3 430 107 566 311 129 192 410 547 631
795 205 231 549 576 754 757 72 64 85 75 132 115 27 23 60 52 74 64 14 12 68
56 120 98 52 42 97 78 100 81 6 8 138 109 174 135 16 11 40 29 55 41 14 11 89
65 166 120 644 458 1347 835 2081 1117 178 68 577 205 674 231 30 8 80 22 110
31 160 48 645 166 775 189 43 8 72 13 140 25 33 6 71 13 85 16 14 3 43 8 65
10 22 3 66 10 97 16 31 5 80 12 110 15 29 2 60 7 68 9 8 2 40 7 70 10 30 3 66
8 80 10 14 2 57 7 97 10 40 4 85 8 100 10 30 4 171 15 268 20 404 25 822 24
1210 0 144 -9 436 -37 535 -51 19 -2 53 -7 75 -10 22 -2 58 -7 80 -10 33 -4
152 -22 255 -39 14 -2 41 -7 60 -10 19 -3 103 -19 185 -35 83 -16 161 -31 175
-34 93 -17 452 -107 642 -162 327 -93 758 -244 1016 -354 12 -6 32 -14 45 -20
421 -181 773 -359 1132 -573 508 -302 1058 -705 1464 -1072 240 -216 544 -522
757 -760 58 -64 295 -348 347 -415 7 -8 56 -73 110 -143 55 -70 115 -145 135
-166 110 -115 259 -192 401 -207 25 -3 51 -7 56 -8 18 -6 138 14 195 31 46 14
202 89 235 113 6 4 51 29 100 55 50 27 114 64 144 82 249 158 364 528 241 773
-25 49 -221 316 -333 455 -111 136 -335 403 -357 425 -3 3 -25 28 -49 55 -299
339 -740 772 -1096 1075 -66 56 -131 112 -145 123 -14 12 -47 40 -75 61 -27
22 -52 42 -55 46 -10 12 -307 239 -435 332 -172 126 -465 323 -646 436 -136
84 -486 292 -493 292 -2 0 -52 27 -112 61 -94 52 -512 262 -627 313 -171 78
-273 122 -337 148 -41 16 -88 35 -105 43 -269 116 -916 335 -1215 411 -409
103 -772 184 -930 208 -37 5 -149 24 -190 32 -14 2 -45 7 -70 10 -25 3 -52 7
-60 9 -8 3 -35 7 -60 10 -25 3 -61 7 -80 10 -19 2 -71 9 -115 14 -44 6 -102
13 -130 16 -27 4 -61 8 -75 10 -14 2 -68 6 -120 10 -52 4 -103 9 -112 10 -9 2
-65 6 -125 10 -59 3 -124 8 -145 10 -112 11 -901 27 -911 19z"/>
<path d="M20381 15784 c-100 -17 -142 -34 -301 -122 -74 -41 -160 -88 -190
-105 -121 -66 -176 -116 -243 -218 -37 -55 -80 -172 -92 -244 -7 -49 -8 -171
0 -205 3 -14 7 -37 10 -51 5 -30 24 -75 70 -174 60 -129 210 -534 287 -775
135 -427 251 -889 317 -1270 26 -152 29 -168 36 -215 3 -23 7 -52 10 -65 2
-13 7 -46 10 -74 3 -28 8 -62 10 -76 6 -39 14 -109 20 -185 3 -38 8 -81 10
-95 3 -23 6 -58 20 -265 23 -336 24 -1043 0 -1275 -2 -19 -6 -78 -9 -130 -3
-52 -8 -106 -10 -120 -4 -22 -9 -72 -22 -210 -4 -53 -35 -283 -50 -375 -12
-72 -15 -93 -26 -150 -6 -33 -12 -67 -13 -75 -1 -8 -7 -40 -13 -70 -6 -30 -14
-68 -16 -85 -35 -201 -165 -706 -252 -978 -43 -134 -128 -383 -154 -452 -220
-585 -463 -1086 -773 -1595 -113 -185 -363 -557 -454 -675 -26 -34 -22 -28
-88 -115 -146 -192 -348 -435 -528 -635 -118 -130 -538 -549 -647 -645 -47
-41 -92 -82 -100 -90 -49 -51 -489 -410 -547 -447 -15 -9 -31 -21 -34 -26 -3
-4 -26 -22 -51 -40 -26 -18 -97 -68 -160 -113 -362 -259 -773 -507 -1183 -713
-185 -94 -250 -125 -420 -202 -80 -36 -312 -132 -415 -171 -564 -215 -1102
-368 -1670 -474 -102 -19 -201 -37 -220 -40 -19 -3 -46 -7 -60 -9 -14 -3 -43
-7 -65 -11 -22 -3 -51 -7 -65 -10 -14 -2 -49 -7 -79 -10 -30 -3 -62 -7 -72 -9
-10 -2 -49 -6 -86 -10 -37 -3 -79 -8 -93 -10 -14 -3 -61 -7 -105 -10 -287 -20
-435 -75 -570 -209 -89 -89 -131 -161 -161 -277 -14 -51 -17 -114 -18 -314 0
-288 4 -330 42 -429 96 -247 324 -415 557 -410 72 1 220 12 252 18 10 2 54 7
98 10 44 4 91 9 105 11 14 2 46 7 73 10 102 11 144 17 202 25 33 5 83 12 110
16 28 3 57 7 65 9 8 1 35 6 60 10 25 4 54 9 65 11 11 2 40 7 65 10 25 3 47 8
50 9 3 2 24 6 46 9 22 4 51 9 64 11 14 3 38 8 53 10 79 15 290 58 342 71 33 8
74 17 90 20 62 11 427 107 610 160 280 82 794 256 900 304 11 5 56 24 100 41
115 45 119 46 127 48 4 1 43 18 85 37 43 19 87 38 98 43 732 311 1520 765
2185 1259 137 101 326 247 340 262 3 3 28 23 55 45 72 57 90 72 174 145 151
129 236 204 375 334 148 138 427 416 538 538 46 50 92 101 103 112 11 12 53
59 94 106 41 47 97 112 126 145 389 446 898 1178 1200 1724 31 56 72 131 91
165 107 193 330 652 429 885 20 47 42 99 49 115 8 17 28 67 45 111 18 44 36
89 41 100 42 94 273 756 285 816 2 9 17 61 33 115 28 91 89 309 97 344 2 8 21
87 43 176 22 88 43 173 46 190 2 16 7 38 10 49 8 35 57 269 61 295 2 14 11 61
19 105 8 44 18 96 21 115 3 19 10 58 15 85 5 28 12 70 15 95 3 25 8 56 10 70
2 14 7 45 10 70 3 25 8 56 10 70 2 14 6 48 9 75 4 28 8 61 11 75 7 42 18 148
30 290 3 41 8 91 10 110 37 308 48 1184 20 1505 -3 28 -7 93 -10 145 -3 52 -7
109 -9 125 -3 17 -7 68 -11 115 -4 47 -9 93 -11 103 -2 10 -6 48 -9 85 -3 37
-8 78 -10 92 -2 14 -6 50 -10 80 -3 30 -8 66 -10 80 -2 14 -7 45 -10 70 -3 25
-20 126 -36 225 -17 99 -32 189 -33 200 -2 11 -11 61 -21 110 -9 50 -19 101
-22 115 -4 22 -56 257 -69 315 -3 11 -7 29 -9 40 -45 210 -198 740 -299 1038
-130 382 -349 933 -402 1008 -125 181 -369 268 -623 223z"/>
<path d="M1330 15613 c-46 -7 -142 -45 -201 -79 -80 -47 -185 -153 -241 -244
-109 -176 -368 -899 -502 -1400 -25 -94 -75 -291 -81 -320 -2 -8 -17 -73 -34
-145 -16 -71 -32 -142 -35 -156 -2 -14 -13 -73 -25 -130 -28 -143 -74 -404
-85 -489 -3 -19 -10 -69 -16 -110 -14 -93 -16 -110 -25 -185 -3 -33 -8 -71
-10 -85 -3 -24 -7 -58 -20 -195 -4 -33 -8 -78 -10 -100 -2 -22 -7 -78 -10
-125 -3 -47 -8 -110 -10 -140 -14 -178 -19 -389 -19 -730 0 -385 9 -659 29
-860 3 -30 8 -86 11 -125 3 -38 7 -86 9 -105 13 -125 16 -158 20 -180 2 -14 6
-50 10 -80 9 -85 15 -133 20 -160 4 -22 11 -68 20 -135 11 -85 16 -115 30
-185 3 -14 7 -41 10 -60 3 -19 7 -46 10 -60 3 -14 9 -50 15 -80 20 -110 55
-275 82 -390 11 -47 21 -92 23 -100 3 -14 32 -136 40 -170 107 -439 348 -1150
515 -1525 10 -22 44 -98 76 -170 103 -233 261 -560 341 -705 17 -30 49 -90 72
-132 23 -43 73 -133 112 -200 39 -68 80 -139 91 -158 93 -160 385 -611 400
-618 5 -2 8 -8 8 -13 0 -8 170 -251 224 -321 12 -14 31 -39 42 -55 12 -15 73
-94 135 -174 108 -138 147 -187 229 -284 19 -23 55 -65 80 -95 53 -62 95 -111
130 -150 14 -15 59 -65 100 -111 252 -279 541 -563 900 -883 62 -56 272 -229
400 -332 452 -361 996 -724 1490 -994 63 -35 139 -76 168 -92 147 -81 745
-368 766 -368 2 0 33 -13 68 -29 152 -70 579 -232 833 -316 146 -49 472 -149
520 -160 11 -2 63 -16 115 -30 52 -15 102 -28 110 -30 8 -2 82 -20 164 -39 82
-20 161 -38 175 -41 14 -3 35 -7 46 -9 75 -17 331 -68 380 -76 74 -12 110 -18
155 -26 38 -7 42 -7 145 -23 108 -18 207 -19 298 -6 228 34 398 150 488 334
51 103 57 156 58 449 0 265 -7 343 -38 400 -6 12 -9 22 -6 22 3 0 -14 37 -37
82 -58 111 -161 217 -249 257 -71 32 -173 57 -264 65 -33 3 -85 10 -115 16
-30 6 -68 13 -85 16 -28 5 -227 43 -250 48 -93 20 -240 54 -330 77 -44 11 -88
22 -97 24 -18 4 -142 37 -223 60 -270 76 -814 260 -930 315 -11 5 -74 31 -140
58 -66 27 -142 59 -170 72 -27 12 -68 31 -90 40 -291 129 -705 347 -1020 538
-126 77 -483 309 -495 322 -3 3 -21 17 -40 30 -143 98 -592 446 -676 525 -6 5
-40 35 -75 65 -281 242 -643 603 -903 900 -153 174 -230 267 -348 420 -14 19
-44 58 -65 85 -83 106 -245 337 -348 495 -59 91 -116 177 -126 192 -10 15 -19
29 -19 32 0 2 -23 42 -51 88 -48 78 -132 223 -209 363 -86 154 -277 548 -355
730 -26 61 -53 124 -60 140 -90 204 -239 623 -336 942 -43 142 -157 581 -173
663 -2 14 -19 95 -36 180 -17 85 -33 171 -36 190 -3 19 -7 42 -9 50 -15 53
-78 508 -90 645 -2 22 -6 74 -10 115 -4 41 -8 92 -11 114 -3 39 -12 184 -19
331 -5 94 -5 639 -1 740 2 39 7 122 11 185 3 63 8 141 10 173 2 32 6 86 10
120 10 108 16 161 20 197 3 19 7 58 10 85 5 50 11 98 20 165 20 151 94 567
120 680 14 61 25 109 28 130 3 14 13 54 22 90 9 36 18 72 20 80 16 79 100 379
163 580 64 203 183 543 226 645 77 182 95 249 90 342 -4 63 -22 152 -34 168
-5 6 -9 13 -9 18 -2 18 -31 77 -66 132 -61 95 -139 162 -292 250 -280 162
-335 189 -424 212 -29 7 -194 11 -229 6z"/>
<path d="M13077 14474 c-1 -1 -29 -4 -62 -7 -265 -25 -496 -165 -652 -397 -24
-36 -84 -162 -134 -280 -50 -118 -94 -224 -99 -235 -38 -86 -50 -115 -50 -122
-1 -4 -9 -26 -20 -48 -11 -22 -19 -44 -20 -48 0 -5 -6 -23 -14 -40 -25 -55
-101 -244 -190 -477 -48 -124 -91 -236 -97 -250 -11 -25 -170 -443 -195 -510
-7 -19 -108 -287 -224 -595 -116 -308 -268 -712 -338 -897 -70 -186 -130 -338
-133 -338 -4 0 -22 30 -41 68 -19 37 -150 297 -292 577 -697 1378 -912 1801
-1127 2225 -47 92 -331 620 -369 685 -13 22 -39 69 -58 105 -19 36 -41 72 -48
81 -8 8 -14 19 -14 23 0 31 -176 215 -265 278 -257 179 -622 201 -915 53 -253
-127 -424 -368 -454 -640 -5 -37 -8 -70 -21 -195 -2 -25 -7 -79 -10 -120 -3
-41 -8 -86 -10 -100 -2 -14 -6 -59 -10 -100 -4 -41 -8 -86 -10 -100 -2 -14 -6
-63 -10 -110 -4 -47 -8 -98 -10 -113 -4 -34 -15 -147 -20 -202 -9 -112 -17
-193 -20 -215 -2 -14 -7 -59 -10 -100 -3 -41 -8 -91 -10 -110 -3 -32 -8 -83
-20 -210 -2 -25 -7 -74 -10 -110 -3 -36 -8 -81 -10 -100 -2 -19 -7 -69 -10
-110 -4 -41 -8 -86 -10 -100 -2 -14 -6 -59 -10 -100 -3 -41 -8 -91 -10 -110
-2 -19 -6 -69 -10 -110 -4 -41 -8 -86 -10 -100 -2 -14 -7 -59 -10 -100 -3 -41
-8 -93 -10 -115 -5 -69 -16 -179 -20 -205 -2 -14 -7 -59 -10 -100 -3 -41 -8
-93 -10 -115 -2 -22 -6 -65 -9 -95 -3 -30 -8 -82 -11 -115 -11 -124 -16 -171
-22 -220 -3 -27 -7 -68 -8 -90 -8 -89 -16 -182 -20 -215 -2 -19 -7 -64 -10
-100 -3 -36 -8 -85 -10 -110 -3 -25 -7 -70 -10 -100 -3 -30 -7 -75 -10 -100
-3 -25 -7 -74 -10 -110 -2 -36 -7 -83 -9 -105 -3 -22 -7 -69 -11 -105 -3 -36
-8 -81 -10 -100 -2 -19 -7 -72 -10 -117 -3 -45 -8 -90 -10 -101 -2 -11 -6 -59
-10 -108 -4 -49 -9 -96 -10 -105 -2 -9 -6 -56 -10 -105 -4 -49 -8 -96 -10
-104 -2 -8 -6 -53 -10 -100 -3 -47 -8 -96 -10 -110 -2 -14 -7 -63 -10 -110 -4
-47 -9 -94 -11 -105 -13 -59 -11 -255 3 -320 51 -244 163 -418 353 -550 32
-23 77 -50 101 -60 24 -11 46 -22 49 -25 5 -6 125 -45 171 -56 43 -10 248 -19
281 -12 18 3 47 8 63 11 47 7 152 45 219 79 182 91 331 249 433 459 51 104 58
129 68 249 3 36 8 85 10 110 7 71 13 139 20 220 4 41 8 86 10 100 2 14 6 57
10 95 3 39 8 95 10 125 3 30 7 78 10 105 5 51 10 102 20 210 3 33 8 80 11 105
2 25 7 74 9 110 4 61 11 133 20 210 3 19 7 67 10 105 3 39 8 90 10 115 19 191
25 254 30 320 3 41 8 91 10 110 4 33 11 109 20 210 2 25 7 77 10 115 8 85 12
126 20 230 3 44 8 96 10 115 2 19 7 69 10 110 6 81 14 152 18 156 2 2 82 -152
365 -708 51 -101 159 -311 239 -467 80 -157 149 -293 154 -303 21 -42 33 -66
142 -279 194 -379 405 -795 504 -989 102 -202 111 -212 258 -319 114 -83 268
-161 347 -176 11 -2 27 -6 36 -9 62 -18 217 -25 297 -13 101 15 125 21 199 48
143 52 253 124 372 243 l71 71 95 230 c53 127 110 266 127 310 18 44 36 89 41
100 16 33 140 361 255 670 240 649 312 842 407 1095 55 146 140 375 190 510
51 134 93 240 94 235 4 -12 54 -261 60 -295 2 -14 7 -36 10 -49 4 -21 66 -357
79 -431 15 -90 75 -463 80 -500 3 -25 12 -83 20 -130 7 -47 17 -110 21 -140 4
-30 8 -57 9 -60 1 -3 5 -32 9 -65 4 -32 9 -66 11 -75 1 -8 6 -37 9 -65 4 -27
9 -61 11 -75 2 -14 6 -47 10 -75 3 -27 8 -61 10 -75 5 -33 24 -175 30 -225 8
-70 17 -139 20 -156 2 -9 6 -40 10 -70 3 -30 8 -65 10 -79 2 -14 7 -50 10 -80
3 -30 8 -66 10 -80 2 -14 7 -50 10 -80 7 -64 12 -109 20 -165 2 -22 7 -62 10
-90 3 -27 7 -66 10 -85 3 -19 7 -55 10 -80 13 -125 75 -293 146 -397 44 -64
143 -160 210 -205 105 -69 247 -130 339 -144 19 -3 38 -8 42 -10 10 -7 217 -6
263 1 118 16 289 86 399 162 159 110 283 292 322 474 30 143 36 256 21 384 -4
28 -9 75 -12 105 -11 110 -17 165 -20 190 -2 14 -6 54 -10 90 -4 36 -8 76 -10
90 -2 14 -6 50 -10 80 -4 30 -8 66 -10 80 -2 14 -6 50 -10 80 -4 30 -8 66 -10
80 -2 14 -7 45 -10 70 -3 25 -8 56 -10 70 -2 14 -7 50 -10 80 -4 30 -9 64 -11
75 -2 11 -6 41 -9 66 -3 25 -7 54 -9 65 -2 10 -7 39 -10 64 -4 25 -11 72 -16
105 -5 33 -19 119 -30 190 -11 72 -22 141 -25 155 -2 13 -7 42 -11 65 -10 69
-78 451 -95 535 -5 25 -11 56 -13 70 -4 24 -83 422 -92 465 -3 11 -9 40 -14
65 -5 25 -12 56 -15 70 -3 14 -10 45 -15 70 -16 85 -20 105 -27 130 -3 14 -7
30 -9 37 -3 15 -38 176 -59 273 -10 41 -28 122 -42 180 -13 58 -26 114 -29
125 -2 11 -7 36 -10 55 -3 19 -8 38 -11 43 -2 4 -7 20 -9 35 -3 15 -10 45 -16
67 -5 22 -11 47 -13 55 -7 35 -72 303 -81 335 -2 6 -6 24 -9 40 -3 17 -20 82
-36 145 -30 114 -35 133 -43 168 -2 11 -27 106 -56 213 -28 107 -62 235 -75
284 -13 50 -49 178 -80 285 -31 107 -57 200 -59 205 -2 6 -6 24 -10 40 -98
385 -347 642 -699 720 -59 13 -211 26 -220 19z"/>
</g>
</svg>
